<svg xmlns="http://www.w3.org/2000/svg" width="198.852" height="40" viewBox="0 0 198.852 40">
  <g id="Group_373" data-name="Group 373" transform="translate(16032 21252)">
    <g id="Group_372" data-name="Group 372" transform="translate(-16455.182 -21494.561)">
      <path id="Path_477" data-name="Path 477" d="M457.33,244.457a4.25,4.25,0,0,0-3.541-1.9h-9.783l5.4,8.318a4.247,4.247,0,0,0,3.541,1.894h9.787Z" fill="#ea1e30"/>
      <path id="Path_478" data-name="Path 478" d="M449.412,257.221a4.254,4.254,0,0,1,3.542-1.9h9.782l-5.4,8.314a4.247,4.247,0,0,1-3.542,1.9h-9.786Z" fill="#aac237"/>
      <path id="Path_479" data-name="Path 479" d="M445.182,257.441a8.553,8.553,0,0,1,1.98-2.116H436.774a4.253,4.253,0,0,0-3.541,1.9l-10.051,15.463h9.785a4.25,4.25,0,0,0,3.542-1.894Z" fill="#086db5"/>
      <path id="Path_480" data-name="Path 480" d="M469.882,255.326h4.02c2.324,0,3.948.746,3.948,3.359,0,2.41-1.448,3.466-3.86,3.466H472.3v3.386h-2.415Zm2.415,4.636h1.3c.292,0,1.736.069,1.736-1.246,0-1.352-1.137-1.3-2.04-1.3h-1Z" fill="#060707"/>
      <path id="Path_481" data-name="Path 481" d="M481.546,257.576v1.706H485.7v2.247h-4.151v1.76h4.3v2.248h-6.707V255.326h6.707v2.25Z" fill="#060707"/>
      <path id="Path_482" data-name="Path 482" d="M501.743,265.537h-2.414v-7.962h-2.794v-2.25h8v2.25h-2.793Z" fill="#060707"/>
      <path id="Path_483" data-name="Path 483" d="M506.981,263.764l-.642,1.773h-2.561l3.574-10.212h2.632l3.5,10.212h-2.572l-.6-1.773Zm1.685-5.283h-.023l-1,3.252h2.005Z" fill="#060707"/>
      <path id="Path_484" data-name="Path 484" d="M515.807,255.326h2.375l1.883,5.458,2-5.458h2.4l1.4,10.211h-2.411l-.68-5.877h-.024l-2.227,5.877h-.961l-2.13-5.877h-.023l-.776,5.877h-2.4Z" fill="#060707"/>
      <rect id="Rectangle_3648" data-name="Rectangle 3648" width="2.412" height="10.211" transform="translate(527.429 255.326)" fill="#060707"/>
      <path id="Path_485" data-name="Path 485" d="M531.961,255.326h2.414l4.418,6.243h.028v-6.243h2.409v10.211H538.82l-4.424-6.254h-.022v6.254h-2.414Z" fill="#060707"/>
      <path id="Path_486" data-name="Path 486" d="M545.662,263.764l-.641,1.773H542.46l3.571-10.212h2.636l3.493,10.212h-2.573l-.6-1.773Zm1.686-5.283h-.025l-.995,3.252h2Z" fill="#060707"/>
      <path id="Path_487" data-name="Path 487" d="M496.625,265.537h-2.989l-2.926-3.915-.415-.014h-.024v3.929h-2.412V255.325h4.5a2.913,2.913,0,0,1,3.229,3.143,2.8,2.8,0,0,1-2.307,2.918Zm-6.354-5.66H491.4c.789,0,1.674-.162,1.674-1.273s-.885-1.27-1.674-1.27h-1.134Z" fill="#060707"/>
      <rect id="Rectangle_3649" data-name="Rectangle 3649" width="1.052" height="9.441" transform="translate(469.883 272.693)" fill="#e21f23"/>
      <path id="Path_488" data-name="Path 488" d="M472.913,272.293l7.363,7.713v-7.312h1.052v9.867l-7.363-7.7v7.275h-1.052Z" fill="#e21f23"/>
      <path id="Path_489" data-name="Path 489" d="M485.8,282.135h-1.052V273.67h-2.279v-.977H488.1v.977h-2.3Z" fill="#e21f23"/>
      <path id="Path_490" data-name="Path 490" d="M489.181,272.694h4.9v.977h-3.844v2.8h3.732v.977h-3.732v3.707h3.844v.977h-4.9Z" fill="#e21f23"/>
      <path id="Path_491" data-name="Path 491" d="M496.921,282.135h-1.052v-9.441h1.365c1.791,0,3.456.475,3.456,2.6a2.467,2.467,0,0,1-2.367,2.6l3.006,4.233h-1.29l-2.855-4.145h-.263Zm0-5.071h.326c1.189,0,2.391-.226,2.391-1.691,0-1.553-1.139-1.7-2.4-1.7h-.313Z" fill="#e21f23"/>
      <path id="Path_492" data-name="Path 492" d="M502.719,272.293l7.363,7.713v-7.312h1.051v9.867l-7.363-7.7v7.275h-1.052Z" fill="#e21f23"/>
      <path id="Path_493" data-name="Path 493" d="M514.516,279.455l-1.139,2.68h-1.152l4.358-9.893,4.245,9.893h-1.165l-1.114-2.68Zm2.042-4.758-1.616,3.781h3.193Z" fill="#e21f23"/>
      <path id="Path_494" data-name="Path 494" d="M523.358,282.135h-1.051V273.67h-2.279v-.977h5.635v.977h-2.3Z" fill="#e21f23"/>
      <rect id="Rectangle_3650" data-name="Rectangle 3650" width="1.051" height="9.441" transform="translate(526.765 272.693)" fill="#e21f23"/>
      <path id="Path_495" data-name="Path 495" d="M539.1,277.427a4.921,4.921,0,1,1-4.921-4.9,4.9,4.9,0,0,1,4.921,4.9m-8.79-.013a3.87,3.87,0,1,0,3.869-3.907,3.9,3.9,0,0,0-3.869,3.907" fill="#e21f23"/>
      <path id="Path_496" data-name="Path 496" d="M540.591,272.293l7.363,7.713v-7.312h1.051v9.867l-7.363-7.7v7.275h-1.051Z" fill="#e21f23"/>
      <path id="Path_497" data-name="Path 497" d="M552.388,279.455l-1.14,2.68H550.1l4.358-9.893,4.245,9.893h-1.164l-1.115-2.68Zm2.041-4.758-1.615,3.781h3.193Z" fill="#e21f23"/>
      <path id="Path_498" data-name="Path 498" d="M560.779,281.158h2.6v.977h-3.656v-9.441h1.052Z" fill="#e21f23"/>
      <path id="Path_499" data-name="Path 499" d="M572.563,274.534a1.734,1.734,0,0,0-1.628-1.027,1.5,1.5,0,0,0-1.565,1.465c0,.814.839,1.19,1.478,1.478l.626.276c1.227.538,2.266,1.151,2.266,2.654a2.98,2.98,0,0,1-5.911.476l1.028-.288a1.944,1.944,0,0,0,1.89,1.753,1.9,1.9,0,0,0,1.941-1.841c0-1.1-.864-1.477-1.74-1.878l-.576-.25c-1.1-.5-2.054-1.065-2.054-2.417a2.477,2.477,0,0,1,2.642-2.4A2.709,2.709,0,0,1,573.4,274Z" fill="#e21f23"/>
      <path id="Path_500" data-name="Path 500" d="M581.217,276.525v-3.831h1.051v9.441h-1.051V277.5h-4.834v4.633h-1.051v-9.441h1.051v3.831Z" fill="#e21f23"/>
      <rect id="Rectangle_3651" data-name="Rectangle 3651" width="1.051" height="9.441" transform="translate(584.248 272.693)" fill="#e21f23"/>
      <path id="Path_501" data-name="Path 501" d="M588.268,282.135h-1.052v-9.441h1.553a3.969,3.969,0,0,1,2.341.5,2.6,2.6,0,0,1,1.065,2.153,2.654,2.654,0,0,1-.9,2.029,3.4,3.4,0,0,1-2.241.626h-.764Zm0-5.109h.7c1.165,0,2.154-.351,2.154-1.7,0-1.54-1.24-1.653-2.467-1.653h-.388Z" fill="#e21f23"/>
      <path id="Path_502" data-name="Path 502" d="M594.567,282.135h-1.052v-9.441h1.553a3.973,3.973,0,0,1,2.342.5,2.6,2.6,0,0,1,1.064,2.153,2.653,2.653,0,0,1-.9,2.029,3.4,3.4,0,0,1-2.242.626h-.764Zm0-5.109h.7c1.164,0,2.153-.351,2.153-1.7,0-1.54-1.24-1.653-2.467-1.653h-.388Z" fill="#e21f23"/>
      <rect id="Rectangle_3652" data-name="Rectangle 3652" width="1.051" height="9.441" transform="translate(599.84 272.693)" fill="#e21f23"/>
      <path id="Path_503" data-name="Path 503" d="M602.871,272.293l7.363,7.713v-7.312h1.052v9.867l-7.363-7.7v7.275h-1.051Z" fill="#e21f23"/>
      <path id="Path_504" data-name="Path 504" d="M622.03,277.389a4.483,4.483,0,0,1-.977,3.331,4.661,4.661,0,0,1-3.493,1.578,4.884,4.884,0,1,1,4.057-7.726l-.764.714a3.838,3.838,0,0,0-3.243-1.779,3.918,3.918,0,0,0-3.857,3.945,3.8,3.8,0,0,0,1.1,2.667,3.966,3.966,0,0,0,2.68,1.2,3.239,3.239,0,0,0,3.368-2.955h-2.8v-.977Z" fill="#e21f23"/>
    </g>
  </g>
</svg>
