<?xml version="1.0" encoding="UTF-8" standalone="no"?>
<!DOCTYPE svg PUBLIC "-//W3C//DTD SVG 1.1//EN" "http://www.w3.org/Graphics/SVG/1.1/DTD/svg11.dtd">
<!-- Created with Vectornator (http://vectornator.io/) -->
<svg height="100%" stroke-miterlimit="10" style="fill-rule:nonzero;clip-rule:evenodd;stroke-linecap:round;stroke-linejoin:round;" version="1.1" viewBox="0 0 640 640" width="100%" xml:space="preserve" xmlns="http://www.w3.org/2000/svg" xmlns:vectornator="http://vectornator.io" xmlns:xlink="http://www.w3.org/1999/xlink">
<defs/>
<g id="Untitled" vectornator:layerName="Untitled">
<g opacity="1" vectornator:layerName="g">
<path d="M103.226 505.806C86.1523 505.806 72.2581 519.701 72.2581 536.774C72.2581 553.848 86.1523 567.742 103.226 567.742C120.299 567.742 134.194 553.848 134.194 536.774C134.194 519.701 120.299 505.806 103.226 505.806ZM103.226 547.097C97.5277 547.097 92.9032 542.472 92.9032 536.774C92.9032 531.076 97.5277 526.452 103.226 526.452C108.924 526.452 113.548 531.076 113.548 536.774C113.548 542.472 108.924 547.097 103.226 547.097Z" fill="#ffffff" fill-rule="nonzero" opacity="1" stroke="none" vectornator:layerName="path"/>
<path d="M567.742 175.484L567.742 103.226L588.387 103.226L588.387 82.5806L495.484 82.5806L423.226 82.5806L423.226 103.226L443.871 103.226L443.871 175.484L371.613 175.484L371.613 258.065L402.581 258.065L402.581 640L423.226 640L423.226 258.065L443.871 258.065L443.871 516.129C443.871 550.286 471.649 578.065 505.806 578.065C539.964 578.065 567.742 550.286 567.742 516.129L567.742 258.065L588.387 258.065L588.387 640L609.032 640L609.032 258.065L640 258.065L640 175.484L567.742 175.484ZM464.516 103.226L547.097 103.226L547.097 175.484L464.516 175.484L464.516 103.226ZM547.097 516.129C547.097 538.901 528.578 557.419 505.806 557.419C490.188 557.419 476.728 548.604 469.719 535.783C496.083 530.89 516.129 507.757 516.129 480C516.129 450.446 493.409 426.106 464.516 423.484L464.516 330.323L490.901 330.323C487.35 336.423 485.161 343.412 485.161 350.968C485.161 373.739 503.68 392.258 526.452 392.258C534.008 392.258 540.996 390.07 547.097 386.519L547.097 516.129ZM464.516 515.603L464.516 444.397C481.982 446.926 495.484 461.853 495.484 480C495.484 498.147 481.982 513.074 464.516 515.603ZM526.452 371.613C515.066 371.613 505.806 362.354 505.806 350.968C505.806 339.582 515.066 330.323 526.452 330.323C537.837 330.323 547.097 339.582 547.097 350.968C547.097 362.354 537.837 371.613 526.452 371.613ZM547.097 309.677L464.516 309.677L464.516 258.065L547.097 258.065L547.097 309.677ZM619.355 237.419L392.258 237.419L392.258 196.129L619.355 196.129L619.355 237.419Z" fill="#ffffff" fill-rule="nonzero" opacity="1" stroke="none" vectornator:layerName="path"/>
<path d="M526.452 51.6129C526.452 34.5394 512.557 20.6452 495.484 20.6452C478.41 20.6452 464.516 34.5394 464.516 51.6129C464.516 68.6865 478.41 82.5806 495.484 82.5806C512.557 82.5806 526.452 68.6865 526.452 51.6129ZM495.484 61.9355C489.786 61.9355 485.161 57.311 485.161 51.6129C485.161 45.9148 489.786 41.2903 495.484 41.2903C501.182 41.2903 505.806 45.9148 505.806 51.6129C505.806 57.311 501.182 61.9355 495.484 61.9355Z" fill="#ffffff" fill-rule="nonzero" opacity="1" stroke="none" vectornator:layerName="path"/>
<path d="M578.065 51.6129C606.524 51.6129 629.677 28.4594 629.677 0L609.032 0C609.032 17.0735 595.138 30.9677 578.065 30.9677C560.991 30.9677 547.097 17.0735 547.097 0L526.452 0C526.452 28.4594 549.605 51.6129 578.065 51.6129Z" fill="#ffffff" fill-rule="nonzero" opacity="1" stroke="none" vectornator:layerName="path"/>
<path d="M227.097 296.96L227.097 51.6129L247.742 51.6129L247.742 30.9677L227.097 30.9677L185.806 30.9677L185.806 0L165.161 0L165.161 30.9677L123.871 30.9677L103.226 30.9677L103.226 51.6129L123.871 51.6129L123.871 296.96C50.5394 319.463 0 387.252 0 464.516C0 561.28 78.72 640 175.484 640C272.248 640 350.968 561.28 350.968 464.516C350.968 387.252 300.428 319.463 227.097 296.96ZM330.323 464.516C330.323 549.894 260.862 619.355 175.484 619.355C90.1058 619.355 20.6452 549.894 20.6452 464.516C20.6452 457.528 21.2439 450.653 22.1523 443.871L186.849 443.871C191.649 467.396 212.49 485.161 237.419 485.161C262.348 485.161 283.19 467.396 287.99 443.871L328.815 443.871C329.724 450.653 330.323 457.528 330.323 464.516ZM208.351 443.871L266.488 443.871C262.214 455.855 250.859 464.516 237.419 464.516C223.979 464.516 212.625 455.855 208.351 443.871ZM26.3432 423.226C40.8465 370.942 82.1987 328.836 136.774 314.766L144.516 312.764L144.516 51.6129L206.452 51.6129L206.452 312.764L214.194 314.766C268.769 328.836 310.121 370.942 324.625 423.226L26.3432 423.226Z" fill="#ffffff" fill-rule="nonzero" opacity="1" stroke="none" vectornator:layerName="path"/>
</g>
</g>
</svg>
