<?xml version="1.0" encoding="UTF-8" standalone="no"?>
<svg
   fill="none"
   height="24"
   viewBox="0 0 24 24"
   width="24"
   version="1.1"
   id="svg6"
   sodipodi:docname="form.svg"
   inkscape:version="1.3.2 (091e20e, 2023-11-25)"
   xmlns:inkscape="http://www.inkscape.org/namespaces/inkscape"
   xmlns:sodipodi="http://sodipodi.sourceforge.net/DTD/sodipodi-0.dtd"
   xmlns="http://www.w3.org/2000/svg"
   xmlns:svg="http://www.w3.org/2000/svg">
  <defs
     id="defs6" />
  <sodipodi:namedview
     id="namedview6"
     pagecolor="#ffffff"
     bordercolor="#000000"
     borderopacity="0.25"
     inkscape:showpageshadow="2"
     inkscape:pageopacity="0.0"
     inkscape:pagecheckerboard="0"
     inkscape:deskcolor="#d1d1d1"
     inkscape:zoom="9.8333333"
     inkscape:cx="12.050847"
     inkscape:cy="13.627119"
     inkscape:window-width="1368"
     inkscape:window-height="725"
     inkscape:window-x="0"
     inkscape:window-y="44"
     inkscape:window-maximized="0"
     inkscape:current-layer="svg6" />
  <path
     d="M 5.75,3 C 4.23122,3 3,4.23122 3,5.75 v 12.5 C 3,19.7688 4.23122,21 5.75,21 h 6.2718 c -0.2965,-0.4632 -0.536,-0.9665 -0.7083,-1.5 H 5.75 C 5.05964,19.5 4.5,18.9404 4.5,18.25 V 5.75 C 4.5,5.05964 5.05964,4.5 5.75,4.5 h 12.5 c 0.6904,0 1.25,0.55964 1.25,1.25 v 5.5635 c 0.5335,0.1723 1.0368,0.4118 1.5,0.7083 V 5.75 C 21,4.23122 19.7688,3 18.25,3 Z"
     fill="#212121"
     id="path1"
     style="fill:#ffffff" />
  <path
     d="m 17.9566,11.0158 c 0.0309,-0.0822 0.0478,-0.1711 0.0478,-0.2641 0,-0.4142 -0.3358,-0.75 -0.75,-0.75 H 12.25 c -0.4142,0 -0.75,0.3358 -0.75,0.75 0,0.4142 0.3358,0.75 0.75,0.75 h 2.7415 C 15.7634,11.1785 16.6108,11 17.5,11 c 0.1535,0 0.3057,0.0053 0.4566,0.0158 z"
     fill="#212121"
     id="path2"
     style="fill:#ffffff" />
  <path
     d="M 8.25,8.50171 C 7.00736,8.50171 6,9.50907 6,10.7517 c 0,1.2426 1.00736,2.25 2.25,2.25 1.24264,0 2.25,-1.0074 2.25,-2.25 C 10.5,9.50907 9.49264,8.50171 8.25,8.50171 Z M 7.5,10.7517 c 0,-0.4142 0.33579,-0.75 0.75,-0.75 0.41421,0 0.75,0.3358 0.75,0.75 0,0.4142 -0.33579,0.75 -0.75,0.75 -0.41421,0 -0.75,-0.3358 -0.75,-0.75 z"
     fill="#212121"
     id="path3"
     style="fill:#ffffff" />
  <path
     d="M 6,16.25 C 6,15.0074 7.00736,14 8.25,14 c 1.24264,0 2.25,1.0074 2.25,2.25 0,1.2426 -1.00736,2.25 -2.25,2.25 C 7.00736,18.5 6,17.4926 6,16.25 Z M 8.25,15.5 C 7.83579,15.5 7.5,15.8358 7.5,16.25 7.5,16.6642 7.83579,17 8.25,17 8.66421,17 9,16.6642 9,16.25 9,15.8358 8.66421,15.5 8.25,15.5 Z"
     fill="#212121"
     id="path4"
     style="fill:#ffffff" />
  <path
     d="m 17.2544,7.5 -10.49952,2e-5 c -0.41421,0 -0.75,-0.33578 -0.75,-0.75 0,-0.41421 0.33579,-0.75 0.75,-0.75 L 17.2544,6 c 0.4142,0 0.75,0.33578 0.75,0.75 0,0.41421 -0.3358,0.75 -0.75,0.75 z"
     fill="#212121"
     id="path5"
     style="fill:#ffffff" />
  <path
     d="M 23,17.5 C 23,14.4624 20.5376,12 17.5,12 14.4624,12 12,14.4624 12,17.5 c 0,3.0376 2.4624,5.5 5.5,5.5 3.0376,0 5.5,-2.4624 5.5,-5.5 z m -4.9989,3.0035 c 0,0.2762 -0.2238,0.5 -0.5,0.5 -0.2761,0 -0.5,-0.2238 -0.5,-0.5 L 17.0006,18 h -2.5045 c -0.2761,0 -0.5,-0.2238 -0.5,-0.5 0,-0.2761 0.2239,-0.5 0.5,-0.5 h 2.5044 L 17,14.4993 c 0,-0.2762 0.2239,-0.5 0.5,-0.5 0.2761,0 0.5,0.2238 0.5,0.5 L 18.0005,17 h 2.5025 c 0.2762,0 0.5,0.2239 0.5,0.5 0,0.2762 -0.2238,0.5 -0.5,0.5 h -2.5024 z"
     fill="#212121"
     id="path6"
     style="fill:#ffffff" />
</svg>
