<svg xmlns="http://www.w3.org/2000/svg" width="32" height="32" viewBox="0 0 32 32" id="ship"><g transform="translate(143.736 -207.065)"><path fill="#f05542" fill-rule="evenodd" style="line-height:normal;text-indent:0;text-align:start;text-decoration-line:none;text-decoration-style:solid;text-decoration-color:#000;text-transform:none;block-progression:tb;isolation:auto;mix-blend-mode:normal" d="m -139.92168,225.64648 c -0.67616,-0.01 -0.67616,1.00956 0,1 l 6.66582,0 c 0.67616,0.01 0.67616,-1.00956 0,-1 z" color="#000" font-family="sans-serif" font-weight="400" overflow="visible"></path><path fill="#f05542" style="line-height:normal;text-indent:0;text-align:start;text-decoration-line:none;text-decoration-style:solid;text-decoration-color:#000;text-transform:none;block-progression:tb;isolation:auto;mix-blend-mode:normal" d="m -118.23633,224.64648 a 0.50004997,0.50004997 0 0 0 -0.5,0.5 l 0,2 a 0.50004997,0.50004997 0 0 0 0.5,0.5 l 2.25977,0 a 0.50004997,0.50004997 0 1 0 0,-1 l -1.75977,0 0,-1 2.53906,0 a 0.50004997,0.50004997 0 1 0 0,-1 l -3.03906,0 z" color="#000" font-family="sans-serif" font-weight="400" overflow="visible"></path><path fill="#f05542" fill-rule="evenodd" style="line-height:normal;text-indent:0;text-align:start;text-decoration-line:none;text-decoration-style:solid;text-decoration-color:#000;text-transform:none;block-progression:tb;isolation:auto;mix-blend-mode:normal" d="M-128.73633 219.06836l0 1 1 0 0-1-1 0zM-126.73633 219.06836l0 1 1 0 0-1-1 0zM-122.73633 219.06836l0 1 1 0 0-1-1 0zM-120.73633 219.06836l0 1 1 0 0-1-1 0zM-124.73633 215.06836l0 1 1 0 0-1-1 0zM-122.73633 215.06836l0 1 1 0 0-1-1 0z" color="#000" font-family="sans-serif" font-weight="400" overflow="visible"></path><path fill="#2b4255" style="line-height:normal;text-indent:0;text-align:start;text-decoration-line:none;text-decoration-style:solid;text-decoration-color:#000;text-transform:none;block-progression:tb;isolation:auto;mix-blend-mode:normal" d="m -142.23633,221.14648 a 0.50005,0.50005 0 0 0 -0.45508,0.70704 l 4.5,9.90039 a 0.50005,0.50005 0 1 0 0.91016,-0.41407 l -4.17773,-9.19336 27.44531,0 -4.17774,9.19336 a 0.50005,0.50005 0 1 0 0.91016,0.41407 l 4.5,-9.90039 a 0.50005,0.50005 0 0 0 -0.45508,-0.70704 l -29,0 z" color="#000" font-family="sans-serif" font-weight="400" overflow="visible"></path><path fill="#2b4255" style="line-height:normal;text-indent:0;text-align:start;text-decoration-line:none;text-decoration-style:solid;text-decoration-color:#000;text-transform:none;block-progression:tb;isolation:auto;mix-blend-mode:normal" d="m -130.23633,217.14648 a 0.50005,0.50005 0 0 0 -0.5,0.5 l 0,4 a 0.50005,0.50005 0 0 0 0.5,0.5 l 6,0 a 0.50005,0.50005 0 0 0 0.5,-0.5 l 0,-4 a 0.50005,0.50005 0 0 0 -0.5,-0.5 l -6,0 z m 0.5,1 5,0 0,3 -5,0 0,-3 z" color="#000" font-family="sans-serif" font-weight="400" overflow="visible"></path><path fill="#2b4255" style="line-height:normal;text-indent:0;text-align:start;text-decoration-line:none;text-decoration-style:solid;text-decoration-color:#000;text-transform:none;block-progression:tb;isolation:auto;mix-blend-mode:normal" d="m -124.23633,217.14648 a 0.50004994,0.50004994 0 0 0 -0.5,0.5 l 0,4 a 0.50004994,0.50004994 0 0 0 0.5,0.5 l 6,0 a 0.50004994,0.50004994 0 0 0 0.5,-0.5 l 0,-4 a 0.50004994,0.50004994 0 0 0 -0.5,-0.5 l -6,0 z m 0.5,1 5,0 0,3 -5,0 0,-3 z" color="#000" font-family="sans-serif" font-weight="400" overflow="visible"></path><path fill="#2b4255" style="line-height:normal;text-indent:0;text-align:start;text-decoration-line:none;text-decoration-style:solid;text-decoration-color:#000;text-transform:none;block-progression:tb;isolation:auto;mix-blend-mode:normal" d="M-126.23633 213.14648a.50005.50005 0 0 0-.5.5l0 4a.50005.50005 0 0 0 .5.5l6 0a.50005.50005 0 0 0 .5-.5l0-4a.50005.50005 0 0 0-.5-.5l-6 0zm.5 1l5 0 0 3-5 0 0-3zM-141.23633 218.06836a.50005.50005 0 0 0-.5.5l0 3.07812a.50005.50005 0 0 0 .5.5l7 0a.50005.50005 0 0 0 .5-.5l0-3.07812a.50005.50005 0 0 0-.5-.5l-7 0zm.5 1l6 0 0 2.07812-6 0 0-2.07812z" color="#000" font-family="sans-serif" font-weight="400" overflow="visible"></path><path fill="#2b4255" style="line-height:normal;text-indent:0;text-align:start;text-decoration-line:none;text-decoration-style:solid;text-decoration-color:#000;text-transform:none;block-progression:tb;isolation:auto;mix-blend-mode:normal" d="M-139.23633 215.06836a.50005.50005 0 0 0-.5.5l0 3a.50005.50005 0 0 0 .5.5l4 0a.50005.50005 0 0 0 .5-.5l0-3a.50005.50005 0 0 0-.5-.5l-4 0zm.5 1l3 0 0 2-3 0 0-2zM-129.94922 230.14648a.50005.50005 0 0 0-.30664.11914c-1.29247 1.06985-3.15371 1.07356-4.45117.01a.50028552.50028552 0 1 0-.63477.77344c1.66266 1.36321 4.0664 1.3573 5.72266-.0137a.50005.50005 0 0 0-.33008-.88868z" color="#000" font-family="sans-serif" font-weight="400" overflow="visible"></path><path fill="#2b4255" style="line-height:normal;text-indent:0;text-align:start;text-decoration-line:none;text-decoration-style:solid;text-decoration-color:#000;text-transform:none;block-progression:tb;isolation:auto;mix-blend-mode:normal" d="M-124.95703 230.14648a.50005.50005 0 0 0-.30664.11914c-1.29247 1.06985-3.15176 1.07356-4.44922.01a.50028552.50028552 0 1 0-.63477.77344c1.66266 1.36321 4.0664 1.3573 5.72266-.0137a.50005.50005 0 0 0-.33203-.88868zM-114.95703 230.14648a.50005.50005 0 0 0-.30664.11914c-1.29247 1.06985-3.15176 1.07356-4.44922.01a.50028552.50028552 0 1 0-.63477.77344c1.66266 1.36321 4.0664 1.3573 5.72266-.0137a.50005.50005 0 0 0-.33203-.88868z" color="#000" font-family="sans-serif" font-weight="400" overflow="visible"></path><path fill="#2b4255" style="line-height:normal;text-indent:0;text-align:start;text-decoration-line:none;text-decoration-style:solid;text-decoration-color:#000;text-transform:none;block-progression:tb;isolation:auto;mix-blend-mode:normal" d="M-119.95703 230.14648a.50005.50005 0 0 0-.30664.11914c-1.29247 1.06985-3.15176 1.07356-4.44922.01a.50028552.50028552 0 1 0-.63477.77344c1.66266 1.36321 4.0664 1.3573 5.72266-.0137a.50005.50005 0 0 0-.33203-.88868zM-135.05469 230.14648a.50005.50005 0 0 0-.30469.11914c-1.29246 1.06985-3.15371 1.07356-4.45117.01a.50028234.50028234 0 1 0-.63476.77344c1.66266 1.36322 4.06639 1.35731 5.72265-.0137a.50005.50005 0 0 0-.33203-.88868z" color="#000" font-family="sans-serif" font-weight="400" overflow="visible"></path><path fill="#2b4255" fill-rule="evenodd" style="line-height:normal;text-indent:0;text-align:start;text-decoration-line:none;text-decoration-style:solid;text-decoration-color:#000;text-transform:none;block-progression:tb;isolation:auto;mix-blend-mode:normal" d="M-136.24414 212.06055a.50005.50005 0 0 0-.49219.50781l0 3a.50005.50005 0 1 0 1 0l0-3a.50005.50005 0 0 0-.50781-.50781zM-138.24219 213.06055a.50005.50005 0 0 0-.49414.50586l0 2.00976a.50005.50005 0 1 0 1 0l0-2.00976a.50005.50005 0 0 0-.50586-.50586z" color="#000" font-family="sans-serif" font-weight="400" overflow="visible"></path><path fill="#2b4255" style="line-height:normal;text-indent:0;text-align:start;text-decoration-line:none;text-decoration-style:solid;text-decoration-color:#000;text-transform:none;block-progression:tb;isolation:auto;mix-blend-mode:normal" d="m -129.94922,232.14648 a 0.50005,0.50005 0 0 0 -0.30664,0.11914 c -1.29247,1.06985 -3.15371,1.07356 -4.45117,0.01 a 0.50028552,0.50028552 0 1 0 -0.63477,0.77344 c 1.66266,1.36321 4.0664,1.3573 5.72266,-0.0137 a 0.50005,0.50005 0 0 0 -0.33008,-0.88868 z" color="#000" font-family="sans-serif" font-weight="400" overflow="visible"></path><path fill="#2b4255" style="line-height:normal;text-indent:0;text-align:start;text-decoration-line:none;text-decoration-style:solid;text-decoration-color:#000;text-transform:none;block-progression:tb;isolation:auto;mix-blend-mode:normal" d="M-124.95703 232.14648a.50005.50005 0 0 0-.30664.11914c-1.29247 1.06985-3.15176 1.07356-4.44922.01a.50028552.50028552 0 1 0-.63477.77344c1.66266 1.36321 4.0664 1.3573 5.72266-.0137a.50005.50005 0 0 0-.33203-.88868zM-114.95703 232.14648a.50005.50005 0 0 0-.30664.11914c-1.29247 1.06985-3.15176 1.07356-4.44922.01a.50028552.50028552 0 1 0-.63477.77344c1.66266 1.36321 4.0664 1.3573 5.72266-.0137a.50005.50005 0 0 0-.33203-.88868z" color="#000" font-family="sans-serif" font-weight="400" overflow="visible"></path><path fill="#2b4255" style="line-height:normal;text-indent:0;text-align:start;text-decoration-line:none;text-decoration-style:solid;text-decoration-color:#000;text-transform:none;block-progression:tb;isolation:auto;mix-blend-mode:normal" d="M-119.95703 232.14648a.50005.50005 0 0 0-.30664.11914c-1.29247 1.06985-3.15176 1.07356-4.44922.01a.50028552.50028552 0 1 0-.63477.77344c1.66266 1.36321 4.0664 1.3573 5.72266-.0137a.50005.50005 0 0 0-.33203-.88868zM-135.05469 232.14648a.50005.50005 0 0 0-.30469.11914c-1.29246 1.06985-3.15371 1.07356-4.45117.01a.50028234.50028234 0 1 0-.63476.77344c1.66266 1.36322 4.06639 1.35731 5.72265-.0137a.50005.50005 0 0 0-.33203-.88868z" color="#000" font-family="sans-serif" font-weight="400" overflow="visible"></path></g></svg>