<!DOCTYPE svg PUBLIC "-//W3C//DTD SVG 1.1//EN" "http://www.w3.org/Graphics/SVG/1.1/DTD/svg11.dtd">
<!-- Uploaded to: SVG Repo, www.svgrepo.com, Transformed by: SVG Repo Mixer Tools -->
<svg fill="#ffffff" version="1.1" id="Layer_1" xmlns="http://www.w3.org/2000/svg" xmlns:xlink="http://www.w3.org/1999/xlink" viewBox="0 0 496 496" xml:space="preserve" width="64px" height="64px" stroke="#ffffff">
<g id="SVGRepo_bgCarrier" stroke-width="0"/>
<g id="SVGRepo_tracerCarrier" stroke-linecap="round" stroke-linejoin="round"/>
<g id="SVGRepo_iconCarrier"> <g> <g> <g> <path d="M448,480c-17.648,0-32-14.352-32-32h-16c0,17.648-14.352,32-32,32s-32-14.352-32-32h-16c0,17.648-14.352,32-32,32 s-32-14.352-32-32h-16c0,17.648-14.352,32-32,32s-32-14.352-32-32h-16c0,17.648-14.352,32-32,32s-32-14.352-32-32H80 c0,17.648-14.352,32-32,32s-32-14.352-32-32H0c0,26.472,21.528,48,48,48c16.672,0,31.392-8.544,40-21.496 C96.608,487.456,111.328,496,128,496s31.392-8.544,40-21.496C176.608,487.456,191.328,496,208,496s31.392-8.544,40-21.496 C256.608,487.456,271.328,496,288,496s31.392-8.544,40-21.496C336.608,487.456,351.328,496,368,496s31.392-8.544,40-21.496 C416.608,487.456,431.328,496,448,496c26.472,0,48-21.528,48-48h-16C480,465.648,465.648,480,448,480z"/> <path d="M480.968,224.304C490.8,210.032,496,193.328,496,176v-8H372.688l-40,40H240v-80h-80V96h16V80h-64V48H96v32H80V0H64v80H0 v16h16v112H0v216v8v8h8c16.672,0,31.392-8.544,40-21.496C56.608,431.456,71.328,440,88,440s31.392-8.544,40-21.496 C136.608,431.456,151.328,440,168,440s31.392-8.544,40-21.496C216.608,431.456,231.328,440,248,440s31.392-8.544,40-21.496 C296.608,431.456,311.328,440,328,440s31.392-8.544,40-21.496C376.608,431.456,391.328,440,408,440s31.392-8.544,40-21.496 C456.608,431.456,471.328,440,488,440h8v-16h-8c-8.136,0-15.488-3.144-21.144-8.168C475.352,404.944,480,391.648,480,377.616 c0-23.784-13.216-45.168-34.488-55.8l-2.176-1.088c-7.024-3.512-11.432-10.568-11.512-18.424 c-0.048-4.312,1.224-8.472,3.672-12.024L480.968,224.304z M160,144h64v64h-64V144z M32,96h112v112H32V96z M56.04,312 l360.816-1.584c2.432,10.568,9.352,19.632,19.328,24.624l2.176,1.088c15.816,7.904,25.64,23.8,25.64,41.488 c0,8.4-2.384,16.376-6.536,23.432C456.6,398.152,456,395.16,456,392h-16c0,17.648-14.352,32-32,32s-32-14.352-32-32h-16 c0,17.648-14.352,32-32,32s-32-14.352-32-32h-16c0,17.648-14.352,32-32,32s-32-14.352-32-32h-16c0,17.648-14.352,32-32,32 s-32-14.352-32-32h-16c0,17.648-14.352,32-32,32s-32-14.352-32-32H40c0,14.864-10.24,27.288-24,30.864V312h24v-16H16v-72h323.312 l40-40h100.224c-1.288,11.184-5.288,21.848-11.744,31.224l-45.464,65.968c-2.776,4.032-4.592,8.528-5.6,13.224L55.968,296 L56.04,312z"/> <rect x="48" y="112" width="16" height="16"/> <rect x="80" y="112" width="16" height="16"/> <rect x="112" y="112" width="16" height="16"/> </g> </g> </g> </g>
</svg>